<svg id="Layer_1" data-name="Layer 1" xmlns="http://www.w3.org/2000/svg" viewBox="0 0 617 584.44"><defs><style>.cls-1{fill:none;stroke:#fff;stroke-miterlimit:10;stroke-width:35px;}.cls-2{fill:#fff;}</style></defs><title>logo_timetable_fg</title><rect class="cls-1" x="17.5" y="76.06" width="582" height="490.88" rx="50" ry="50"/><line class="cls-1" x1="18" y1="231" x2="599" y2="231"/><line class="cls-1" x1="100.5" y1="328.63" x2="174.5" y2="328.63"/><circle class="cls-2" cx="101.37" cy="328.62" r="17.37"/><circle class="cls-2" cx="173.63" cy="328.62" r="17.37"/><line class="cls-1" x1="271" y1="328.63" x2="345" y2="328.63"/><circle class="cls-2" cx="271.87" cy="328.62" r="17.37"/><circle class="cls-2" cx="344.13" cy="328.62" r="17.37"/><line class="cls-1" x1="441.5" y1="328.63" x2="515.5" y2="328.63"/><circle class="cls-2" cx="442.37" cy="328.62" r="17.37"/><circle class="cls-2" cx="514.63" cy="328.62" r="17.37"/><line class="cls-1" x1="100.5" y1="400.63" x2="174.5" y2="400.63"/><circle class="cls-2" cx="101.37" cy="400.63" r="17.37"/><circle class="cls-2" cx="173.63" cy="400.63" r="17.37"/><line class="cls-1" x1="271" y1="400.63" x2="345" y2="400.63"/><circle class="cls-2" cx="271.87" cy="400.63" r="17.37"/><circle class="cls-2" cx="344.13" cy="400.63" r="17.37"/><line class="cls-1" x1="441.5" y1="400.63" x2="515.5" y2="400.63"/><circle class="cls-2" cx="442.37" cy="400.63" r="17.37"/><circle class="cls-2" cx="514.63" cy="400.63" r="17.37"/><line class="cls-1" x1="100.5" y1="472.63" x2="174.5" y2="472.63"/><circle class="cls-2" cx="101.37" cy="472.63" r="17.37"/><circle class="cls-2" cx="173.63" cy="472.63" r="17.37"/><line class="cls-1" x1="271" y1="472.63" x2="345" y2="472.63"/><circle class="cls-2" cx="271.87" cy="472.63" r="17.37"/><circle class="cls-2" cx="344.13" cy="472.63" r="17.37"/><line class="cls-1" x1="441.5" y1="472.63" x2="515.5" y2="472.63"/><circle class="cls-2" cx="442.37" cy="472.63" r="17.37"/><circle class="cls-2" cx="514.63" cy="472.63" r="17.37"/><line class="cls-1" x1="138" y1="131.5" x2="138" y2="16.5"/><circle class="cls-2" cx="138" cy="130.63" r="17.37"/><circle class="cls-2" cx="138" cy="17.37" r="17.37"/><line class="cls-1" x1="308.5" y1="132" x2="308.5" y2="17"/><circle class="cls-2" cx="308.5" cy="131.13" r="17.37"/><circle class="cls-2" cx="308.5" cy="17.87" r="17.37"/><line class="cls-1" x1="479" y1="132.5" x2="479" y2="17.5"/><circle class="cls-2" cx="479" cy="131.63" r="17.37"/><circle class="cls-2" cx="479" cy="18.37" r="17.37"/></svg>