<svg id="Layer_1" data-name="Layer 1" xmlns="http://www.w3.org/2000/svg" xmlns:xlink="http://www.w3.org/1999/xlink" viewBox="0 0 900 900"><defs><style>.cls-1{fill:url(#linear-gradient);}.cls-2{fill:none;stroke:#fff;stroke-miterlimit:10;stroke-width:35px;}.cls-3{fill:#fff;}</style><linearGradient id="linear-gradient" x1="239.01" y1="770.1" x2="674.64" y2="109.18" gradientUnits="userSpaceOnUse"><stop offset="0" stop-color="#67abff"/><stop offset="1" stop-color="#861ce9"/></linearGradient></defs><title>logo_timetable</title><circle class="cls-1" cx="450" cy="450" r="450"/><rect class="cls-2" x="159" y="204.56" width="582" height="490.88" rx="50" ry="50"/><line class="cls-2" x1="159.5" y1="359.5" x2="740.5" y2="359.5"/><line class="cls-2" x1="242" y1="457.13" x2="316" y2="457.13"/><circle class="cls-3" cx="242.87" cy="457.12" r="17.37"/><circle class="cls-3" cx="315.13" cy="457.12" r="17.37"/><line class="cls-2" x1="412.5" y1="457.13" x2="486.5" y2="457.13"/><circle class="cls-3" cx="413.37" cy="457.12" r="17.37"/><circle class="cls-3" cx="485.63" cy="457.12" r="17.37"/><line class="cls-2" x1="583" y1="457.13" x2="657" y2="457.13"/><circle class="cls-3" cx="583.87" cy="457.12" r="17.37"/><circle class="cls-3" cx="656.13" cy="457.12" r="17.37"/><line class="cls-2" x1="242" y1="529.13" x2="316" y2="529.13"/><circle class="cls-3" cx="242.87" cy="529.13" r="17.37"/><circle class="cls-3" cx="315.13" cy="529.13" r="17.37"/><line class="cls-2" x1="412.5" y1="529.13" x2="486.5" y2="529.13"/><circle class="cls-3" cx="413.37" cy="529.13" r="17.37"/><circle class="cls-3" cx="485.63" cy="529.13" r="17.37"/><line class="cls-2" x1="583" y1="529.13" x2="657" y2="529.13"/><circle class="cls-3" cx="583.87" cy="529.13" r="17.37"/><circle class="cls-3" cx="656.13" cy="529.13" r="17.37"/><line class="cls-2" x1="242" y1="601.13" x2="316" y2="601.13"/><circle class="cls-3" cx="242.87" cy="601.13" r="17.37"/><circle class="cls-3" cx="315.13" cy="601.13" r="17.37"/><line class="cls-2" x1="412.5" y1="601.13" x2="486.5" y2="601.13"/><circle class="cls-3" cx="413.37" cy="601.13" r="17.37"/><circle class="cls-3" cx="485.63" cy="601.13" r="17.37"/><line class="cls-2" x1="583" y1="601.13" x2="657" y2="601.13"/><circle class="cls-3" cx="583.87" cy="601.13" r="17.37"/><circle class="cls-3" cx="656.13" cy="601.13" r="17.37"/><line class="cls-2" x1="279.5" y1="260" x2="279.5" y2="145"/><circle class="cls-3" cx="279.5" cy="259.13" r="17.37"/><circle class="cls-3" cx="279.5" cy="145.87" r="17.37"/><line class="cls-2" x1="450" y1="260.5" x2="450" y2="145.5"/><circle class="cls-3" cx="450" cy="259.63" r="17.37"/><circle class="cls-3" cx="450" cy="146.37" r="17.37"/><line class="cls-2" x1="620.5" y1="261" x2="620.5" y2="146"/><circle class="cls-3" cx="620.5" cy="260.13" r="17.37"/><circle class="cls-3" cx="620.5" cy="146.87" r="17.37"/></svg>